<svg xmlns="http://www.w3.org/2000/svg" viewBox="0 0 1200 900" width="1200" height="900"><rect x="0" y="0" width="1200" height="900" fill="#f3e2c7" /><rect x="120" y="100" width="960" height="300" fill="#fff1cf" /><rect x="114" y="94" width="972" height="10" fill="#5b3a29" /><rect x="114" y="400" width="972" height="10" fill="#5b3a29" /><rect x="114" y="94" width="10" height="316" fill="#5b3a29" /><rect x="1076" y="94" width="10" height="316" fill="#5b3a29" /><rect x="596" y="94" width="8" height="316" fill="#5b3a29" /><rect x="0" y="560" width="1200" height="340" fill="#5b3a29" /><rect x="0" y="560" width="1200" height="16" fill="#3e271a" /><ellipse cx="300" cy="500" rx="170" ry="80" fill="#c98c48"/><path d="M215 480 l42.5 -24 M283 472 l42.5 -24 M351 480 l42.5 -24" stroke="#f0d29a" stroke-width="10" stroke-linecap="butt" fill="none"/><ellipse cx="640" cy="510" rx="150" ry="70" fill="#c98c48"/><path d="M565 492.5 l37.5 -21 M625 485.5 l37.5 -21 M685 492.5 l37.5 -21" stroke="#f0d29a" stroke-width="10" stroke-linecap="butt" fill="none"/><ellipse cx="930" cy="500" rx="170" ry="82" fill="#c98c48"/><path d="M845 479.5 l42.5 -24.599999999999998 M913 471.3 l42.5 -24.599999999999998 M981 479.5 l42.5 -24.599999999999998" stroke="#f0d29a" stroke-width="10" stroke-linecap="butt" fill="none"/><g transform="rotate(-4 430 690)"><rect x="200" y="664" width="460" height="52" fill="#b47a3a" /><rect x="200" y="664" width="460" height="8" fill="#d9a15e" /><rect x="280" y="660" width="8" height="60" fill="#f0d29a" /><rect x="370" y="660" width="8" height="60" fill="#f0d29a" /><rect x="460" y="660" width="8" height="60" fill="#f0d29a" /><rect x="550" y="660" width="8" height="60" fill="#f0d29a" /></g><g transform="rotate(3 800 760)"><rect x="570" y="734" width="460" height="52" fill="#b47a3a" /><rect x="570" y="734" width="460" height="8" fill="#d9a15e" /><rect x="650" y="730" width="8" height="60" fill="#f0d29a" /><rect x="740" y="730" width="8" height="60" fill="#f0d29a" /><rect x="830" y="730" width="8" height="60" fill="#f0d29a" /><rect x="920" y="730" width="8" height="60" fill="#f0d29a" /></g><rect x="150" y="640" width="60" height="120" fill="#e9e2d0" /><rect x="160" y="660" width="40" height="8" fill="#22302b" /></svg>
