<svg xmlns="http://www.w3.org/2000/svg" viewBox="0 0 1200 900" width="1200" height="900"><rect x="0" y="0" width="1200" height="900" fill="#1d2650" /><rect x="0" y="250" width="1200" height="120" fill="#2e3670" /><rect x="0" y="370" width="1200" height="110" fill="#6d447c" /><rect x="0" y="480" width="1200" height="100" fill="#d8764f" /><circle cx="860" cy="190" r="56" fill="#f4ead0"/><circle cx="884" cy="176" r="50" fill="#1d2650"/><rect x="120" y="90" width="6" height="6" fill="#f4ead0" /><rect x="310" y="160" width="6" height="6" fill="#f4ead0" /><rect x="520" y="70" width="6" height="6" fill="#f4ead0" /><rect x="690" y="130" width="6" height="6" fill="#f4ead0" /><rect x="1040" y="100" width="6" height="6" fill="#f4ead0" /><rect x="1130" y="240" width="6" height="6" fill="#f4ead0" /><rect x="440" y="210" width="6" height="6" fill="#f4ead0" /><rect x="0" y="520" width="210" height="380" fill="#0f1224" /><rect x="18" y="550" width="22" height="28" fill="#f2c86b" /><rect x="110" y="550" width="22" height="28" fill="#f2c86b" /><rect x="64" y="604" width="22" height="28" fill="#f2c86b" /><rect x="18" y="658" width="22" height="28" fill="#f2c86b" /><rect x="156" y="658" width="22" height="28" fill="#f2c86b" /><rect x="110" y="712" width="22" height="28" fill="#f2c86b" /><rect x="64" y="766" width="22" height="28" fill="#f2c86b" /><rect x="156" y="766" width="22" height="28" fill="#f2c86b" /><rect x="190" y="440" width="160" height="460" fill="#151a33" /><rect x="208" y="470" width="22" height="28" fill="#f2c86b" /><rect x="300" y="470" width="22" height="28" fill="#f2c86b" /><rect x="254" y="524" width="22" height="28" fill="#f2c86b" /><rect x="208" y="578" width="22" height="28" fill="#f2c86b" /><rect x="300" y="632" width="22" height="28" fill="#f2c86b" /><rect x="254" y="686" width="22" height="28" fill="#f2c86b" /><rect x="208" y="740" width="22" height="28" fill="#f2c86b" /><rect x="300" y="740" width="22" height="28" fill="#f2c86b" /><rect x="330" y="560" width="240" height="340" fill="#0f1224" /><rect x="348" y="590" width="22" height="28" fill="#f2c86b" /><rect x="440" y="590" width="22" height="28" fill="#f2c86b" /><rect x="394" y="644" width="22" height="28" fill="#f2c86b" /><rect x="532" y="644" width="22" height="28" fill="#f2c86b" /><rect x="348" y="698" width="22" height="28" fill="#f2c86b" /><rect x="486" y="698" width="22" height="28" fill="#f2c86b" /><rect x="440" y="752" width="22" height="28" fill="#f2c86b" /><rect x="532" y="752" width="22" height="28" fill="#f2c86b" /><rect x="550" y="390" width="150" height="510" fill="#151a33" /><rect x="568" y="420" width="22" height="28" fill="#f2c86b" /><rect x="660" y="420" width="22" height="28" fill="#f2c86b" /><rect x="614" y="474" width="22" height="28" fill="#f2c86b" /><rect x="568" y="528" width="22" height="28" fill="#f2c86b" /><rect x="660" y="582" width="22" height="28" fill="#f2c86b" /><rect x="614" y="636" width="22" height="28" fill="#f2c86b" /><rect x="568" y="690" width="22" height="28" fill="#f2c86b" /><rect x="660" y="690" width="22" height="28" fill="#f2c86b" /><rect x="614" y="744" width="22" height="28" fill="#f2c86b" /><rect x="680" y="520" width="230" height="380" fill="#0f1224" /><rect x="698" y="550" width="22" height="28" fill="#f2c86b" /><rect x="790" y="550" width="22" height="28" fill="#f2c86b" /><rect x="744" y="604" width="22" height="28" fill="#f2c86b" /><rect x="698" y="658" width="22" height="28" fill="#f2c86b" /><rect x="836" y="658" width="22" height="28" fill="#f2c86b" /><rect x="790" y="712" width="22" height="28" fill="#f2c86b" /><rect x="744" y="766" width="22" height="28" fill="#f2c86b" /><rect x="836" y="766" width="22" height="28" fill="#f2c86b" /><rect x="890" y="450" width="140" height="450" fill="#151a33" /><rect x="908" y="480" width="22" height="28" fill="#f2c86b" /><rect x="954" y="534" width="22" height="28" fill="#f2c86b" /><rect x="908" y="588" width="22" height="28" fill="#f2c86b" /><rect x="954" y="696" width="22" height="28" fill="#f2c86b" /><rect x="908" y="750" width="22" height="28" fill="#f2c86b" /><rect x="1010" y="560" width="190" height="340" fill="#0f1224" /><rect x="1028" y="590" width="22" height="28" fill="#f2c86b" /><rect x="1120" y="590" width="22" height="28" fill="#f2c86b" /><rect x="1074" y="644" width="22" height="28" fill="#f2c86b" /><rect x="1028" y="698" width="22" height="28" fill="#f2c86b" /><rect x="1166" y="698" width="22" height="28" fill="#f2c86b" /><rect x="1120" y="752" width="22" height="28" fill="#f2c86b" /><rect x="615" y="330" width="6" height="70" fill="#151a33" /><rect x="590" y="350" width="56" height="5" fill="#151a33" /><polygon points="220,440 255,400 290,440" fill="#151a33"/><rect x="752" y="480" width="22" height="44" fill="#0f1224" /><rect x="1078" y="500" width="22" height="60" fill="#0f1224" /><rect x="0" y="820" width="1200" height="80" fill="#080a16" /></svg>
