<svg xmlns="http://www.w3.org/2000/svg" viewBox="0 0 1200 900" width="1200" height="900"><rect x="0" y="0" width="1200" height="900" fill="#eaf3f7" /><circle cx="180" cy="150" r="70" fill="#ffffff"/><circle cx="260" cy="150" r="50" fill="#ffffff"/><circle cx="120" cy="160" r="44" fill="#ffffff"/><circle cx="980" cy="240" r="64" fill="#ffffff"/><circle cx="1060" cy="244" r="46" fill="#ffffff"/><polygon points="0,900 0,640 240,580 520,620 820,560 1200,650 1200,900" fill="#79a35a"/><polygon points="0,900 0,760 300,710 640,760 960,700 1200,760 1200,900" fill="#5d8a43"/><polygon points="520,174 604,300 520,426 436,300" fill="#d9412d"/><rect x="517.2" y="174" width="5.6" height="251.99999999999997" fill="#ffffff" opacity="0.7"/><path d="M520 426 q -42 84 14 154 t -14 154" fill="none" stroke="#d9412d" stroke-width="5.6"/><polygon points="760,290 820,380 760,470 700,380" fill="#2f6bd0"/><rect x="758" y="290" width="4" height="180" fill="#ffffff" opacity="0.7"/><path d="M760 470 q -30 60 10 110 t -10 110" fill="none" stroke="#2f6bd0" stroke-width="4"/><polygon points="380,348 428,420 380,492 332,420" fill="#f2b81e"/><rect x="378.4" y="348" width="3.2" height="144" fill="#ffffff" opacity="0.7"/><path d="M380 492 q -24 48 8 88 t -8 88" fill="none" stroke="#c98d00" stroke-width="3.2"/><path d="M520 426 L560 600" stroke="#34404a" stroke-width="3"/><path d="M760 470 L700 600" stroke="#34404a" stroke-width="3"/><circle cx="560" cy="620" r="18" fill="#34404a"/><rect x="548" y="636" width="24" height="50" fill="#34404a" /><circle cx="700" cy="622" r="16" fill="#c8412a"/><rect x="689" y="636" width="22" height="46" fill="#c8412a" /></svg>
