<svg xmlns="http://www.w3.org/2000/svg" viewBox="0 0 1200 900" width="1200" height="900"><rect x="0" y="0" width="1200" height="900" fill="#efe2cc" /><rect x="0" y="560" width="1200" height="340" fill="#d6c2a1" /><rect x="0" y="90" width="120" height="190" fill="#c8412a" /><rect x="120" y="90" width="120" height="190" fill="#f8f1e3" /><rect x="240" y="90" width="120" height="190" fill="#c8412a" /><rect x="360" y="90" width="120" height="190" fill="#f8f1e3" /><rect x="480" y="90" width="120" height="190" fill="#c8412a" /><rect x="600" y="90" width="120" height="190" fill="#f8f1e3" /><rect x="720" y="90" width="120" height="190" fill="#c8412a" /><rect x="840" y="90" width="120" height="190" fill="#f8f1e3" /><rect x="960" y="90" width="120" height="190" fill="#c8412a" /><rect x="1080" y="90" width="120" height="190" fill="#f8f1e3" /><circle cx="60" cy="280" r="60" fill="#c8412a"/><circle cx="180" cy="280" r="60" fill="#f8f1e3"/><circle cx="300" cy="280" r="60" fill="#c8412a"/><circle cx="420" cy="280" r="60" fill="#f8f1e3"/><circle cx="540" cy="280" r="60" fill="#c8412a"/><circle cx="660" cy="280" r="60" fill="#f8f1e3"/><circle cx="780" cy="280" r="60" fill="#c8412a"/><circle cx="900" cy="280" r="60" fill="#f8f1e3"/><circle cx="1020" cy="280" r="60" fill="#c8412a"/><circle cx="1140" cy="280" r="60" fill="#f8f1e3"/><rect x="0" y="70" width="1200" height="24" fill="#7a2a1c" /><rect x="90" y="290" width="18" height="300" fill="#5a3a24" /><rect x="1092" y="290" width="18" height="300" fill="#5a3a24" /><rect x="450" y="310" width="300" height="120" fill="#22302b" /><rect x="480" y="340" width="180" height="10" fill="#e9e2d0" /><rect x="480" y="372" width="120" height="10" fill="#e9e2d0" /><rect x="650" y="372" width="60" height="10" fill="#e9e2d0" /><rect x="60" y="590" width="1080" height="40" fill="#7a4e2d" /><rect x="60" y="630" width="1080" height="270" fill="#5a3a24" /><rect x="110" y="470" width="300" height="122" fill="#b98b52" /><rect x="110" y="500" width="300" height="8" fill="#8d6733" /><rect x="110" y="540" width="300" height="8" fill="#8d6733" /><rect x="110" y="580" width="300" height="12" fill="#8d6733" /><rect x="450" y="470" width="300" height="122" fill="#b98b52" /><rect x="450" y="500" width="300" height="8" fill="#8d6733" /><rect x="450" y="540" width="300" height="8" fill="#8d6733" /><rect x="450" y="580" width="300" height="12" fill="#8d6733" /><rect x="790" y="470" width="300" height="122" fill="#b98b52" /><rect x="790" y="500" width="300" height="8" fill="#8d6733" /><rect x="790" y="540" width="300" height="8" fill="#8d6733" /><rect x="790" y="580" width="300" height="12" fill="#8d6733" /><circle cx="150" cy="470" r="34" fill="#d8432a"/><rect x="146" y="430" width="8" height="10" fill="#3d7a3c" /><circle cx="206" cy="470" r="34" fill="#b5321d"/><rect x="202" y="430" width="8" height="10" fill="#3d7a3c" /><circle cx="262" cy="470" r="34" fill="#d8432a"/><rect x="258" y="430" width="8" height="10" fill="#3d7a3c" /><circle cx="318" cy="470" r="34" fill="#d8432a"/><rect x="314" y="430" width="8" height="10" fill="#3d7a3c" /><circle cx="374" cy="470" r="34" fill="#b5321d"/><rect x="370" y="430" width="8" height="10" fill="#3d7a3c" /><circle cx="178" cy="430" r="34" fill="#d8432a"/><rect x="174" y="390" width="8" height="10" fill="#3d7a3c" /><circle cx="234" cy="430" r="34" fill="#d8432a"/><rect x="230" y="390" width="8" height="10" fill="#3d7a3c" /><circle cx="290" cy="430" r="34" fill="#b5321d"/><rect x="286" y="390" width="8" height="10" fill="#3d7a3c" /><circle cx="346" cy="430" r="34" fill="#d8432a"/><rect x="342" y="390" width="8" height="10" fill="#3d7a3c" /><circle cx="402" cy="430" r="34" fill="#d8432a"/><rect x="398" y="390" width="8" height="10" fill="#3d7a3c" /><circle cx="150" cy="390" r="34" fill="#b5321d"/><rect x="146" y="350" width="8" height="10" fill="#3d7a3c" /><circle cx="206" cy="390" r="34" fill="#d8432a"/><rect x="202" y="350" width="8" height="10" fill="#3d7a3c" /><circle cx="490" cy="470" r="34" fill="#e7792b"/><rect x="486" y="430" width="8" height="10" fill="#3d7a3c" /><circle cx="546" cy="470" r="34" fill="#e7792b"/><rect x="542" y="430" width="8" height="10" fill="#3d7a3c" /><circle cx="602" cy="470" r="34" fill="#d8432a"/><rect x="598" y="430" width="8" height="10" fill="#3d7a3c" /><circle cx="658" cy="470" r="34" fill="#e7792b"/><rect x="654" y="430" width="8" height="10" fill="#3d7a3c" /><circle cx="714" cy="470" r="34" fill="#e7792b"/><rect x="710" y="430" width="8" height="10" fill="#3d7a3c" /><circle cx="518" cy="430" r="34" fill="#e7792b"/><rect x="514" y="390" width="8" height="10" fill="#3d7a3c" /><circle cx="574" cy="430" r="34" fill="#d8432a"/><rect x="570" y="390" width="8" height="10" fill="#3d7a3c" /><circle cx="630" cy="430" r="34" fill="#e7792b"/><rect x="626" y="390" width="8" height="10" fill="#3d7a3c" /><circle cx="686" cy="430" r="34" fill="#e7792b"/><rect x="682" y="390" width="8" height="10" fill="#3d7a3c" /><circle cx="742" cy="430" r="34" fill="#e7792b"/><rect x="738" y="390" width="8" height="10" fill="#3d7a3c" /><circle cx="490" cy="390" r="34" fill="#e7792b"/><rect x="486" y="350" width="8" height="10" fill="#3d7a3c" /><circle cx="546" cy="390" r="34" fill="#d8432a"/><rect x="542" y="350" width="8" height="10" fill="#3d7a3c" /><circle cx="830" cy="470" r="34" fill="#b5321d"/><rect x="826" y="430" width="8" height="10" fill="#3d7a3c" /><circle cx="886" cy="470" r="34" fill="#d8432a"/><rect x="882" y="430" width="8" height="10" fill="#3d7a3c" /><circle cx="942" cy="470" r="34" fill="#b5321d"/><rect x="938" y="430" width="8" height="10" fill="#3d7a3c" /><circle cx="998" cy="470" r="34" fill="#b5321d"/><rect x="994" y="430" width="8" height="10" fill="#3d7a3c" /><circle cx="1054" cy="470" r="34" fill="#d8432a"/><rect x="1050" y="430" width="8" height="10" fill="#3d7a3c" /><circle cx="858" cy="430" r="34" fill="#b5321d"/><rect x="854" y="390" width="8" height="10" fill="#3d7a3c" /><circle cx="914" cy="430" r="34" fill="#d8432a"/><rect x="910" y="390" width="8" height="10" fill="#3d7a3c" /><circle cx="970" cy="430" r="34" fill="#d8432a"/><rect x="966" y="390" width="8" height="10" fill="#3d7a3c" /><circle cx="1026" cy="430" r="34" fill="#b5321d"/><rect x="1022" y="390" width="8" height="10" fill="#3d7a3c" /><circle cx="1082" cy="430" r="34" fill="#d8432a"/><rect x="1078" y="390" width="8" height="10" fill="#3d7a3c" /><circle cx="830" cy="390" r="34" fill="#b5321d"/><rect x="826" y="350" width="8" height="10" fill="#3d7a3c" /><circle cx="886" cy="390" r="34" fill="#b5321d"/><rect x="882" y="350" width="8" height="10" fill="#3d7a3c" /><polygon points="600,470 640,430 680,470" fill="#3d7a3c"/><polygon points="620,470 660,420 700,470" fill="#56964d"/></svg>
